<svg width="233" height="48" viewBox="0 0 233 48" fill="none" xmlns="http://www.w3.org/2000/svg">
<path d="M74.5166 21.9834H78.5449C78.4375 23.4092 78.042 24.6738 77.3584 25.7773C76.6748 26.8711 75.7227 27.7305 74.502 28.3555C73.2812 28.9805 71.8018 29.293 70.0635 29.293C68.7256 29.293 67.5195 29.0586 66.4453 28.5898C65.3809 28.1113 64.4678 27.4326 63.7061 26.5537C62.9541 25.665 62.3779 24.6006 61.9775 23.3604C61.5771 22.1104 61.377 20.709 61.377 19.1562V17.5303C61.377 15.9775 61.582 14.5762 61.9922 13.3262C62.4023 12.0762 62.9883 11.0117 63.75 10.1328C64.5215 9.24414 65.4443 8.56055 66.5186 8.08203C67.6025 7.60352 68.8135 7.36426 70.1514 7.36426C71.8896 7.36426 73.3594 7.68652 74.5605 8.33105C75.7617 8.96582 76.6943 9.83984 77.3584 10.9531C78.0225 12.0664 78.4229 13.3457 78.5596 14.791H74.5312C74.4531 13.8926 74.2578 13.1309 73.9453 12.5059C73.6426 11.8809 73.1836 11.4072 72.5684 11.085C71.9629 10.7529 71.1572 10.5869 70.1514 10.5869C69.3701 10.5869 68.6816 10.7334 68.0859 11.0264C67.5 11.3193 67.0117 11.7588 66.6211 12.3447C66.2305 12.9209 65.9375 13.6436 65.7422 14.5127C65.5469 15.3721 65.4492 16.3682 65.4492 17.501V19.1562C65.4492 20.2402 65.5371 21.2119 65.7129 22.0713C65.8887 22.9307 66.1621 23.6582 66.5332 24.2539C66.9043 24.8496 67.3828 25.3037 67.9688 25.6162C68.5547 25.9287 69.2529 26.085 70.0635 26.085C71.0498 26.085 71.8506 25.9287 72.4658 25.6162C73.0908 25.3037 73.5645 24.8447 73.8867 24.2393C74.2188 23.6338 74.4287 22.8818 74.5166 21.9834ZM80.6836 21.2363V20.9287C80.6836 19.7666 80.8496 18.6973 81.1816 17.7207C81.5137 16.7344 81.9971 15.8799 82.6318 15.1572C83.2666 14.4346 84.043 13.873 84.9609 13.4727C85.8789 13.0625 86.9238 12.8574 88.0957 12.8574C89.2871 12.8574 90.3418 13.0625 91.2598 13.4727C92.1875 13.873 92.9688 14.4346 93.6035 15.1572C94.2383 15.8799 94.7217 16.7344 95.0537 17.7207C95.3857 18.6973 95.5518 19.7666 95.5518 20.9287V21.2363C95.5518 22.3887 95.3857 23.458 95.0537 24.4443C94.7217 25.4209 94.2383 26.2754 93.6035 27.0078C92.9688 27.7305 92.1924 28.292 91.2744 28.6924C90.3564 29.0928 89.3066 29.293 88.125 29.293C86.9531 29.293 85.9033 29.0928 84.9756 28.6924C84.0479 28.292 83.2666 27.7305 82.6318 27.0078C81.9971 26.2754 81.5137 25.4209 81.1816 24.4443C80.8496 23.458 80.6836 22.3887 80.6836 21.2363ZM84.5508 20.9287V21.2363C84.5508 21.9297 84.6191 22.5791 84.7559 23.1846C84.8926 23.79 85.1025 24.3223 85.3857 24.7812C85.6689 25.2402 86.0352 25.6016 86.4844 25.8652C86.9434 26.1191 87.4902 26.2461 88.125 26.2461C88.75 26.2461 89.2871 26.1191 89.7363 25.8652C90.1855 25.6016 90.5518 25.2402 90.835 24.7812C91.1279 24.3223 91.3428 23.79 91.4795 23.1846C91.6162 22.5791 91.6846 21.9297 91.6846 21.2363V20.9287C91.6846 20.2451 91.6162 19.6055 91.4795 19.0098C91.3428 18.4043 91.1279 17.8721 90.835 17.4131C90.5518 16.9443 90.1807 16.5781 89.7217 16.3145C89.2725 16.041 88.7305 15.9043 88.0957 15.9043C87.4707 15.9043 86.9336 16.041 86.4844 16.3145C86.0352 16.5781 85.6689 16.9443 85.3857 17.4131C85.1025 17.8721 84.8926 18.4043 84.7559 19.0098C84.6191 19.6055 84.5508 20.2451 84.5508 20.9287ZM103.433 29H99.5361V11.6855C99.5361 10.4941 99.7656 9.49316 100.225 8.68262C100.684 7.8623 101.338 7.24219 102.188 6.82227C103.037 6.40234 104.038 6.19238 105.19 6.19238C105.571 6.19238 105.933 6.2168 106.274 6.26562C106.626 6.31445 106.973 6.38281 107.314 6.4707L107.241 9.41504C107.056 9.36621 106.851 9.33203 106.626 9.3125C106.411 9.29297 106.172 9.2832 105.908 9.2832C105.381 9.2832 104.932 9.37598 104.561 9.56152C104.189 9.74707 103.906 10.0205 103.711 10.3818C103.525 10.7334 103.433 11.168 103.433 11.6855V29ZM106.641 13.1504V15.9336H97.1484V13.1504H106.641ZM114.097 29H110.2V11.6855C110.2 10.4941 110.43 9.49316 110.889 8.68262C111.348 7.8623 112.002 7.24219 112.852 6.82227C113.701 6.40234 114.702 6.19238 115.854 6.19238C116.235 6.19238 116.597 6.2168 116.938 6.26562C117.29 6.31445 117.637 6.38281 117.979 6.4707L117.905 9.41504C117.72 9.36621 117.515 9.33203 117.29 9.3125C117.075 9.29297 116.836 9.2832 116.572 9.2832C116.045 9.2832 115.596 9.37598 115.225 9.56152C114.854 9.74707 114.57 10.0205 114.375 10.3818C114.189 10.7334 114.097 11.168 114.097 11.6855V29ZM117.305 13.1504V15.9336H107.812V13.1504H117.305ZM126.46 29.293C125.259 29.293 124.18 29.0977 123.223 28.707C122.266 28.3164 121.45 27.7744 120.776 27.0811C120.112 26.3779 119.6 25.5625 119.238 24.6348C118.887 23.6973 118.711 22.6914 118.711 21.6172V21.0312C118.711 19.8105 118.887 18.7021 119.238 17.7061C119.59 16.7002 120.088 15.8359 120.732 15.1133C121.377 14.3906 122.148 13.834 123.047 13.4434C123.945 13.0527 124.937 12.8574 126.021 12.8574C127.144 12.8574 128.135 13.0479 128.994 13.4287C129.854 13.7998 130.571 14.3271 131.147 15.0107C131.724 15.6943 132.158 16.5146 132.451 17.4717C132.744 18.4189 132.891 19.4688 132.891 20.6211V22.2471H120.469V19.5811H129.082V19.2881C129.062 18.6729 128.945 18.1113 128.73 17.6035C128.516 17.0859 128.184 16.6758 127.734 16.373C127.285 16.0605 126.704 15.9043 125.991 15.9043C125.415 15.9043 124.912 16.0312 124.482 16.2852C124.062 16.5293 123.711 16.8809 123.428 17.3398C123.154 17.7891 122.949 18.3262 122.812 18.9512C122.676 19.5762 122.607 20.2695 122.607 21.0312V21.6172C122.607 22.2812 122.695 22.8965 122.871 23.4629C123.057 24.0293 123.325 24.5225 123.677 24.9424C124.038 25.3525 124.468 25.6748 124.966 25.9092C125.474 26.1338 126.05 26.2461 126.694 26.2461C127.505 26.2461 128.237 26.0898 128.892 25.7773C129.556 25.4551 130.132 24.9814 130.62 24.3564L132.568 26.3779C132.236 26.8662 131.787 27.335 131.221 27.7842C130.664 28.2334 129.99 28.5996 129.199 28.8828C128.408 29.1562 127.495 29.293 126.46 29.293ZM142.603 29.293C141.401 29.293 140.322 29.0977 139.365 28.707C138.408 28.3164 137.593 27.7744 136.919 27.0811C136.255 26.3779 135.742 25.5625 135.381 24.6348C135.029 23.6973 134.854 22.6914 134.854 21.6172V21.0312C134.854 19.8105 135.029 18.7021 135.381 17.7061C135.732 16.7002 136.23 15.8359 136.875 15.1133C137.52 14.3906 138.291 13.834 139.189 13.4434C140.088 13.0527 141.079 12.8574 142.163 12.8574C143.286 12.8574 144.277 13.0479 145.137 13.4287C145.996 13.7998 146.714 14.3271 147.29 15.0107C147.866 15.6943 148.301 16.5146 148.594 17.4717C148.887 18.4189 149.033 19.4688 149.033 20.6211V22.2471H136.611V19.5811H145.225V19.2881C145.205 18.6729 145.088 18.1113 144.873 17.6035C144.658 17.0859 144.326 16.6758 143.877 16.373C143.428 16.0605 142.847 15.9043 142.134 15.9043C141.558 15.9043 141.055 16.0312 140.625 16.2852C140.205 16.5293 139.854 16.8809 139.57 17.3398C139.297 17.7891 139.092 18.3262 138.955 18.9512C138.818 19.5762 138.75 20.2695 138.75 21.0312V21.6172C138.75 22.2812 138.838 22.8965 139.014 23.4629C139.199 24.0293 139.468 24.5225 139.819 24.9424C140.181 25.3525 140.61 25.6748 141.108 25.9092C141.616 26.1338 142.192 26.2461 142.837 26.2461C143.647 26.2461 144.38 26.0898 145.034 25.7773C145.698 25.4551 146.274 24.9814 146.763 24.3564L148.711 26.3779C148.379 26.8662 147.93 27.335 147.363 27.7842C146.807 28.2334 146.133 28.5996 145.342 28.8828C144.551 29.1562 143.638 29.293 142.603 29.293ZM167.812 7.67188V29H163.799V7.67188H167.812ZM174.434 7.67188V10.8506H157.251V7.67188H174.434ZM179.663 16.3877V29H175.796V13.1504H179.458L179.663 16.3877ZM184.482 13.0479L184.424 16.6514C184.209 16.6123 183.965 16.583 183.691 16.5635C183.428 16.5439 183.179 16.5342 182.944 16.5342C182.349 16.5342 181.826 16.6172 181.377 16.7832C180.928 16.9395 180.552 17.1689 180.249 17.4717C179.956 17.7744 179.731 18.1455 179.575 18.585C179.419 19.0146 179.331 19.5029 179.312 20.0498L178.477 19.9473C178.477 18.9414 178.579 18.0088 178.784 17.1494C178.989 16.29 179.287 15.5381 179.678 14.8936C180.068 14.249 180.557 13.751 181.143 13.3994C181.738 13.0381 182.422 12.8574 183.193 12.8574C183.408 12.8574 183.638 12.877 183.882 12.916C184.136 12.9453 184.336 12.9893 184.482 13.0479ZM194.839 25.6309V18.3213C194.839 17.7842 194.746 17.3203 194.561 16.9297C194.375 16.5391 194.092 16.2363 193.711 16.0215C193.33 15.8066 192.847 15.6992 192.261 15.6992C191.743 15.6992 191.289 15.7871 190.898 15.9629C190.518 16.1387 190.225 16.3877 190.02 16.71C189.814 17.0225 189.712 17.3838 189.712 17.7939H185.83C185.83 17.1396 185.986 16.5195 186.299 15.9336C186.611 15.3379 187.056 14.8105 187.632 14.3516C188.218 13.8828 188.916 13.5166 189.727 13.2529C190.547 12.9893 191.465 12.8574 192.48 12.8574C193.682 12.8574 194.751 13.0625 195.688 13.4727C196.636 13.873 197.378 14.4785 197.915 15.2891C198.462 16.0996 198.735 17.1201 198.735 18.3506V25.2646C198.735 26.0557 198.784 26.7344 198.882 27.3008C198.989 27.8574 199.146 28.3408 199.351 28.751V29H195.41C195.225 28.5996 195.083 28.0918 194.985 27.4766C194.888 26.8516 194.839 26.2363 194.839 25.6309ZM195.381 19.3467L195.41 21.6465H192.964C192.358 21.6465 191.826 21.71 191.367 21.8369C190.908 21.9541 190.532 22.1299 190.239 22.3643C189.946 22.5889 189.727 22.8623 189.58 23.1846C189.434 23.4971 189.36 23.8535 189.36 24.2539C189.36 24.6445 189.448 24.9961 189.624 25.3086C189.81 25.6211 190.073 25.8701 190.415 26.0557C190.767 26.2314 191.177 26.3193 191.646 26.3193C192.329 26.3193 192.925 26.1826 193.433 25.9092C193.94 25.626 194.336 25.2842 194.619 24.8838C194.902 24.4834 195.054 24.1025 195.073 23.7412L196.187 25.4111C196.05 25.8115 195.845 26.2363 195.571 26.6855C195.298 27.1348 194.946 27.5547 194.517 27.9453C194.087 28.3359 193.569 28.6582 192.964 28.9121C192.358 29.166 191.655 29.293 190.854 29.293C189.829 29.293 188.911 29.0879 188.101 28.6777C187.29 28.2676 186.65 27.7061 186.182 26.9932C185.713 26.2803 185.479 25.4697 185.479 24.5615C185.479 23.7217 185.635 22.9795 185.947 22.335C186.26 21.6904 186.724 21.1484 187.339 20.709C187.954 20.2598 188.716 19.9229 189.624 19.6982C190.542 19.4639 191.592 19.3467 192.773 19.3467H195.381ZM208.726 26.2461C209.272 26.2461 209.761 26.1387 210.19 25.9238C210.62 25.709 210.962 25.4062 211.216 25.0156C211.479 24.625 211.621 24.1709 211.641 23.6533H215.288C215.269 24.7275 214.966 25.6895 214.38 26.5391C213.794 27.3887 213.013 28.0625 212.036 28.5605C211.069 29.0488 209.985 29.293 208.784 29.293C207.563 29.293 206.499 29.0879 205.591 28.6777C204.683 28.2676 203.926 27.6963 203.32 26.9639C202.725 26.2314 202.275 25.3818 201.973 24.415C201.68 23.4482 201.533 22.4131 201.533 21.3096V20.8408C201.533 19.7373 201.68 18.7021 201.973 17.7354C202.275 16.7686 202.725 15.9189 203.32 15.1865C203.926 14.4541 204.683 13.8828 205.591 13.4727C206.499 13.0625 207.559 12.8574 208.77 12.8574C210.049 12.8574 211.172 13.1064 212.139 13.6045C213.115 14.1025 213.877 14.8057 214.424 15.7139C214.98 16.6221 215.269 17.6914 215.288 18.9219H211.641C211.621 18.3555 211.494 17.8477 211.26 17.3984C211.025 16.9492 210.693 16.5879 210.264 16.3145C209.834 16.041 209.312 15.9043 208.696 15.9043C208.042 15.9043 207.495 16.041 207.056 16.3145C206.626 16.5879 206.289 16.9639 206.045 17.4424C205.811 17.9111 205.645 18.4385 205.547 19.0244C205.459 19.6006 205.415 20.2061 205.415 20.8408V21.3096C205.415 21.9541 205.459 22.5693 205.547 23.1553C205.645 23.7412 205.811 24.2686 206.045 24.7373C206.289 25.1963 206.626 25.5625 207.056 25.8359C207.495 26.1094 208.052 26.2461 208.726 26.2461ZM224.985 29.293C223.784 29.293 222.705 29.0977 221.748 28.707C220.791 28.3164 219.976 27.7744 219.302 27.0811C218.638 26.3779 218.125 25.5625 217.764 24.6348C217.412 23.6973 217.236 22.6914 217.236 21.6172V21.0312C217.236 19.8105 217.412 18.7021 217.764 17.7061C218.115 16.7002 218.613 15.8359 219.258 15.1133C219.902 14.3906 220.674 13.834 221.572 13.4434C222.471 13.0527 223.462 12.8574 224.546 12.8574C225.669 12.8574 226.66 13.0479 227.52 13.4287C228.379 13.7998 229.097 14.3271 229.673 15.0107C230.249 15.6943 230.684 16.5146 230.977 17.4717C231.27 18.4189 231.416 19.4688 231.416 20.6211V22.2471H218.994V19.5811H227.607V19.2881C227.588 18.6729 227.471 18.1113 227.256 17.6035C227.041 17.0859 226.709 16.6758 226.26 16.373C225.811 16.0605 225.229 15.9043 224.517 15.9043C223.94 15.9043 223.438 16.0312 223.008 16.2852C222.588 16.5293 222.236 16.8809 221.953 17.3398C221.68 17.7891 221.475 18.3262 221.338 18.9512C221.201 19.5762 221.133 20.2695 221.133 21.0312V21.6172C221.133 22.2812 221.221 22.8965 221.396 23.4629C221.582 24.0293 221.851 24.5225 222.202 24.9424C222.563 25.3525 222.993 25.6748 223.491 25.9092C223.999 26.1338 224.575 26.2461 225.22 26.2461C226.03 26.2461 226.763 26.0898 227.417 25.7773C228.081 25.4551 228.657 24.9814 229.146 24.3564L231.094 26.3779C230.762 26.8662 230.312 27.335 229.746 27.7842C229.189 28.2334 228.516 28.5996 227.725 28.8828C226.934 29.1562 226.021 29.293 224.985 29.293Z" fill="#535353"/>
<path d="M34.875 3H3.375V24C3.375 27.1826 4.48125 30.2348 6.45038 32.4853C8.41951 34.7357 11.0902 36 13.875 36H24.375C27.1598 36 29.8305 34.7357 31.7996 32.4853C33.7688 30.2348 34.875 27.1826 34.875 24V21M34.875 3V21M34.875 3H40.125C41.5174 3 42.8527 3.63214 43.8373 4.75736C44.8219 5.88258 45.375 7.4087 45.375 9V15C45.375 16.5913 44.8219 18.1174 43.8373 19.2426C42.8527 20.3679 41.5174 21 40.125 21H34.875M3.375 45H40.125" stroke="#7C4700" stroke-width="5" stroke-linecap="round" stroke-linejoin="round"/>
</svg>
